M48
;DRILL file {KiCad (5.0.1-3-g963ef8bb5)} date Monday, May 06, 2019 at 12:14:58 PM
;FORMAT={-:-/ absolute / inch / decimal}
FMAT,2
INCH,TZ
T1C0.0157
T2C0.0394
%
G90
G05
M72
T1
X5.0872Y-4.1494
X5.0912Y-3.7301
X5.0981Y-4.0317
X5.101Y-3.9446
X5.1424Y-4.1868
X5.2034Y-4.0992
X5.2181Y-3.6887
X5.2181Y-3.8334
X5.3313Y-3.919
X5.3353Y-3.6454
X5.3904Y-3.7252
X5.3924Y-3.9574
X5.4406Y-3.6061
X5.4465Y-3.862
X5.475Y-4.0785
X5.4852Y-3.7639
X5.4976Y-3.5312
X5.5115Y-4.2025
X5.5518Y-4.0007
X5.5518Y-4.0372
X5.5902Y-3.862
X5.6168Y-3.9594
X5.6453Y-4.0372
X5.6552Y-3.9673
X5.6678Y-3.65
X5.6779Y-4.0289
X5.6827Y-3.9978
X5.7162Y-3.8403
X5.7516Y-3.8206
X5.7537Y-3.5523
X5.7851Y-4.0293
X5.7971Y-3.8038
X5.8166Y-4.0372
X5.8284Y-3.9742
X5.8441Y-4.1257
X5.854Y-3.6198
X5.8933Y-4.1531
X5.9032Y-3.919
X5.9052Y-3.6021
X5.9386Y-3.9368
X5.9426Y-4.2488
X5.9494Y-4.0874
X5.9563Y-4.045
X5.9701Y-3.858
X5.9878Y-3.5903
T2
X5.0939Y-3.4624
X5.3537Y-3.4624
T0
M30
